<?xml version="1.0" encoding="iso-8859-1"?>
<!-- Generator: Adobe Illustrator 19.0.0, SVG Export Plug-In . SVG Version: 6.00 Build 0)  -->
<svg version="1.1" id="Capa_1" xmlns="http://www.w3.org/2000/svg" xmlns:xlink="http://www.w3.org/1999/xlink" x="0px" y="0px"
	 viewBox="0 0 512 512" style="enable-background:new 0 0 512 512;" xml:space="preserve">
<g>
	<g>
		<path d="M45,121c-24.853,0-45,20.147-45,45v61.983c0,12.464,7.623,23.919,19.288,28.306C80.925,279.47,146.23,292.722,211,297.06
			V121H45z"/>
	</g>
</g>
<g>
	<g>
		<path d="M467,121H301v176.036c64.801-4.371,130.109-17.651,191.714-40.822C504.379,251.827,512,240.376,512,227.912V166
			C512,141.147,491.853,121,467,121z"/>
	</g>
</g>
<g>
	<g>
		<path d="M241,121v177.389c10.009,0.222,19.993,0.223,30-0.004V121H241z"/>
	</g>
</g>
<g>
	<g>
		<path d="M241,331v15c0,8.276,6.724,15,15,15s15-6.724,15-15v-15H241z"/>
	</g>
</g>
<g>
	<g>
		<path d="M301,327.429V346c0,24.814-20.186,45-45,45c-24.814,0-45-20.186-45-45v-18.558c-60.956-3.983-122.49-15.687-181-35.55V436
			c0,24.814,20.186,45,45,45h362c24.814,0,45-20.186,45-45V291.828C423.505,311.678,361.974,323.428,301,327.429z"/>
	</g>
</g>
<g>
	<g>
		<path d="M346,31H166c-24.814,0-45,20.186-45,45v15h30V76c0-8.276,6.724-15,15-15h180c8.276,0,15,6.724,15,15v15h30V76
			C391,51.186,370.814,31,346,31z"/>
	</g>
</g>
<g>
</g>
<g>
</g>
<g>
</g>
<g>
</g>
<g>
</g>
<g>
</g>
<g>
</g>
<g>
</g>
<g>
</g>
<g>
</g>
<g>
</g>
<g>
</g>
<g>
</g>
<g>
</g>
<g>
</g>
</svg>
